<?xml version="1.0" standalone="no"?>
<!DOCTYPE svg PUBLIC "-//W3C//DTD SVG 20010904//EN"
 "http://www.w3.org/TR/2001/REC-SVG-20010904/DTD/svg10.dtd">
<svg version="1.0" xmlns="http://www.w3.org/2000/svg"
 width="1024.000000pt" height="1024.000000pt" viewBox="0 0 1024.000000 1024.000000"
 preserveAspectRatio="xMidYMid meet">

<g transform="translate(0.000000,1024.000000) scale(0.100000,-0.100000)"
fill="#000000" stroke="none">
<path d="M0 5120 l0 -5120 5120 0 5120 0 0 5120 0 5120 -5120 0 -5120 0 0
-5120z m2609 3286 c110 -30 191 -113 215 -221 4 -21 3 -25 -3 -14 -19 31 -91
104 -91 92 0 -6 -9 -15 -21 -18 -11 -4 -18 -9 -16 -12 3 -2 15 0 26 7 23 12
24 10 15 -14 -3 -9 -10 -13 -15 -10 -6 3 -7 -6 -4 -23 l6 -28 -14 30 c-20 41
-50 64 -116 86 -65 23 -131 19 -195 -12 -48 -23 -63 -24 -46 -4 10 13 9 15
-10 15 -16 0 -20 4 -16 16 3 8 2 12 -4 9 -12 -7 -13 7 -2 21 4 6 -8 -6 -25
-25 -37 -39 -46 -26 -10 15 74 87 203 122 326 90z m4750 -18 c6 -17 14 -57 17
-87 13 -135 50 -174 182 -193 88 -12 125 -29 106 -48 -6 -6 -59 -22 -119 -35
-59 -14 -116 -32 -126 -41 -22 -20 -33 -55 -50 -152 -23 -136 -55 -136 -71 -1
-18 149 -43 177 -173 198 -128 21 -124 60 8 81 128 20 141 33 163 167 16 92
31 143 44 143 5 0 13 -14 19 -32z m-3935 -32 c20 -23 36 -49 36 -57 -1 -18
-66 -89 -83 -89 -14 0 -77 73 -77 90 0 14 69 100 81 100 4 0 24 -20 43 -44z
m3220 -116 c20 -22 36 -46 36 -53 0 -6 -19 -31 -41 -55 l-41 -42 -39 42 c-21
24 -38 51 -39 60 0 21 57 88 75 88 7 0 29 -18 49 -40z m-4403 7 c-10 -9 -11
-8 -5 6 3 10 9 15 12 12 3 -3 0 -11 -7 -18z m3115 -271 c67 -9 143 -23 169
-31 26 -9 55 -17 66 -18 15 -1 19 -9 19 -38 0 -21 -4 -49 -10 -63 -7 -20 -6
-24 5 -20 19 8 45 60 45 91 0 27 7 28 46 8 16 -8 36 -15 45 -15 29 0 102 -37
87 -44 -7 -3 -2 -3 11 0 13 3 33 1 45 -5 17 -8 116 -53 186 -85 8 -3 -1 -3
-20 0 -19 3 -41 6 -47 7 -7 0 -11 3 -8 5 3 3 -14 14 -37 24 -22 10 -43 16 -46
14 -2 -3 -15 -1 -28 4 -15 6 -24 6 -24 0 0 -6 9 -10 20 -10 10 0 24 -9 30 -20
9 -16 8 -20 -5 -20 -8 0 -15 -4 -15 -8 0 -17 13 -21 31 -9 14 9 21 9 30 0 18
-18 -21 -30 -122 -38 -46 -4 -109 -14 -139 -21 -73 -19 -140 -19 -140 1 0 7 8
18 17 24 16 8 15 11 -7 30 -14 11 -29 21 -35 21 -5 1 -1 5 10 10 18 7 16 9
-12 15 -18 4 -31 11 -28 15 6 9 -201 50 -257 50 -84 0 -140 12 -145 31 -3 9
-16 19 -29 22 -23 4 -24 3 -9 -13 9 -10 31 -26 48 -35 l32 -16 -32 4 c-18 2
-30 0 -27 -4 5 -8 -34 -49 -47 -49 -3 0 -12 7 -20 16 -17 21 -65 45 -73 36 -4
-3 -4 1 0 11 3 10 1 17 -5 17 -6 0 -11 -5 -11 -12 0 -6 -2 -9 -5 -7 -2 3 -2
15 2 27 5 21 7 22 23 7 14 -13 18 -13 23 -2 15 39 -33 46 -55 7 -11 -20 -29
-32 -57 -40 -22 -6 -43 -15 -46 -20 -3 -6 -12 -10 -18 -10 -7 0 -6 4 3 11 20
13 -66 2 -134 -17 -65 -18 -86 -18 -102 4 -13 15 -15 15 -24 1 -11 -19 -94
-57 -228 -105 -158 -57 -150 -55 -167 -31 -8 12 -15 36 -15 55 0 30 4 35 48
53 84 35 108 48 87 46 -11 -2 -24 -5 -30 -9 -5 -3 -26 -9 -45 -13 l-35 -7 35
20 c51 28 304 109 385 123 39 6 115 20 170 30 121 22 427 19 621 -5z m284 -71
c0 -8 -4 -15 -10 -15 -5 0 -10 7 -10 15 0 8 5 15 10 15 6 0 10 -7 10 -15z
m2354 -10 c36 -33 34 -70 -5 -106 -17 -16 -37 -29 -44 -29 -8 0 -29 18 -48 41
-39 45 -39 68 1 99 33 27 64 25 96 -5z m-3297 -91 c-3 -3 -12 -4 -19 -1 -8 3
-5 6 6 6 11 1 17 -2 13 -5z m50 0 c-3 -3 -12 -4 -19 -1 -8 3 -5 6 6 6 11 1 17
-2 13 -5z m713 -4 c20 -6 21 -8 5 -8 -11 0 -29 3 -40 8 -25 11 1 11 35 0z
m-1386 -19 c4 -5 -8 -12 -24 -16 -17 -4 -36 -15 -42 -25 -6 -10 -17 -16 -23
-14 -13 5 -69 -18 -102 -42 -13 -9 -23 -12 -23 -7 0 15 118 75 132 67 7 -4 8
-3 4 4 -4 7 6 17 26 26 41 18 45 18 52 7z m723 -17 c-3 -3 -12 -4 -19 -1 -8 3
-5 6 6 6 11 1 17 -2 13 -5z m2207 -35 c37 -29 35 -71 -5 -100 -35 -25 -49 -21
-83 24 l-20 27 34 35 c19 19 37 35 41 35 3 0 18 -9 33 -21z m-872 -9 c18 -11
27 -20 21 -20 -7 0 -27 9 -45 20 -18 11 -27 20 -21 20 7 0 27 -9 45 -20z
m-2288 -55 c-4 -8 -11 -15 -16 -15 -5 0 -22 -10 -36 -21 l-27 -21 25 6 c19 6
21 5 10 -3 -8 -6 -23 -8 -32 -5 -13 4 -16 1 -12 -11 7 -16 -29 -55 -50 -55 -6
0 3 11 19 25 35 29 29 31 -20 8 -22 -11 -34 -22 -30 -31 2 -7 1 -11 -4 -8 -10
6 -139 -77 -184 -118 -16 -15 -25 -31 -22 -37 4 -6 1 -9 -8 -7 -9 2 -42 -22
-74 -52 -32 -31 -65 -59 -73 -64 -25 -14 183 185 220 210 60 41 85 58 99 72
15 14 210 141 218 142 1 0 0 -7 -3 -15z m2406 -16 c10 -6 5 -7 -15 -3 -16 4
-34 11 -40 16 -11 12 31 1 55 -13z m-3266 -20 c47 -37 26 -98 -33 -99 -30 0
-61 27 -61 53 0 23 37 67 55 67 7 0 24 -9 39 -21z m-944 -34 c39 -20 47 -51
23 -84 -53 -70 -138 5 -87 77 18 26 26 27 64 7z m3003 -32 c3 -33 5 -35 12
-15 5 16 15 22 36 22 16 0 29 -4 29 -10 0 -5 -4 -10 -10 -10 -5 0 -17 -9 -27
-19 -10 -11 -46 -26 -79 -35 -72 -19 -84 -20 -84 -6 0 6 9 10 19 10 11 0 22 4
25 9 3 4 -7 6 -22 5 -15 -2 -20 -1 -12 2 8 3 22 8 30 11 8 4 18 5 23 5 4 -1 7
7 7 18 0 11 6 20 13 21 8 0 8 2 -2 6 -11 5 -11 7 0 14 26 17 38 9 42 -28z m34
21 c-3 -3 -12 -4 -19 -1 -8 3 -5 6 6 6 11 1 17 -2 13 -5z m-692 -150 c0 -31
-5 -41 -27 -54 -26 -14 -29 -13 -48 5 -11 11 -22 35 -26 52 -6 30 -4 34 27 47
48 21 74 3 74 -50z m-1687 -6 c5 -21 16 -34 28 -37 30 -5 44 -21 44 -52 0 -24
-5 -29 -35 -35 -30 -5 -35 -10 -35 -34 0 -28 -15 -40 -51 -40 -15 0 -19 7 -19
39 0 37 -2 40 -32 43 -29 3 -33 7 -36 36 -3 29 0 33 27 38 23 5 33 14 38 33 9
38 12 41 38 41 19 0 26 -7 33 -32z m1400 -4 c26 -18 27 -34 7 -74 -31 -60 -86
-63 -105 -5 -23 71 38 121 98 79z m4012 -19 c54 -28 48 -85 -12 -104 -18 -6
-76 -17 -129 -25 -113 -18 -138 -27 -185 -63 -39 -29 -79 -97 -68 -116 21 -37
51 -57 100 -67 39 -8 60 -19 79 -41 25 -30 33 -73 16 -83 -5 -3 -14 -26 -20
-52 -19 -73 -10 -78 128 -70 109 7 115 6 137 -15 36 -34 33 -91 -5 -119 -16
-11 -42 -20 -58 -20 -15 0 -59 -1 -98 -3 -38 -1 -81 1 -95 4 -24 7 -24 7 -2 8
26 1 30 20 5 22 -73 6 -92 5 -90 -5 1 -6 -15 -12 -36 -14 -20 -2 -35 -7 -32
-13 8 -12 -8 -12 -21 1 -14 14 -46 2 -37 -14 3 -6 1 -6 -8 2 -7 6 -22 12 -33
12 -16 0 -18 2 -7 9 12 8 12 10 0 14 -8 2 -1 3 14 1 15 -2 25 0 22 5 -3 6 -57
9 -120 8 -67 -1 -109 -5 -102 -10 7 -5 -11 -6 -43 -3 -40 4 -49 3 -35 -5 17
-8 16 -9 -6 -4 -37 7 -58 -20 -62 -78 -2 -31 -22 -11 -25 26 -2 25 -8 37 -18
37 -20 0 -29 -27 -14 -45 6 -8 9 -18 6 -24 -7 -11 17 -21 55 -21 16 0 29 -3
29 -7 0 -14 -152 -14 -168 -1 -41 34 -32 100 15 119 16 6 109 19 208 29 194
19 241 26 295 42 40 12 90 55 90 77 0 32 -38 79 -70 86 -20 4 -30 12 -26 20 7
19 -113 50 -151 40 -15 -5 -33 -7 -40 -6 -18 3 -26 -38 -11 -57 9 -12 6 -12
-10 2 -18 16 -22 28 -20 60 3 39 7 44 75 89 86 56 100 85 61 124 -22 22 -34
25 -87 24 -67 -1 -161 -14 -255 -36 -33 -8 -87 -15 -119 -15 -52 0 -59 3 -69
25 -14 31 0 67 35 90 25 16 231 55 427 81 63 8 147 22 185 30 147 32 311 62
343 63 18 1 46 -6 62 -14z m-3144 -73 c48 -33 59 -118 19 -157 -31 -32 -58
-32 -84 1 -31 39 -28 100 6 136 27 29 40 33 59 20z m-1718 -142 c-18 -22 -37
-40 -43 -40 -5 0 9 18 30 40 50 51 55 51 13 0z m-834 0 c48 -18 59 -87 17
-109 -10 -6 -82 -22 -161 -36 -152 -28 -199 -48 -226 -100 -20 -40 -1 -72 69
-112 72 -43 92 -71 82 -119 -5 -30 -8 -34 -18 -21 -7 8 -46 31 -87 51 l-76 35
-94 -10 c-184 -19 -349 -72 -336 -106 3 -8 2 -12 -3 -8 -5 3 -12 -1 -14 -7 -4
-9 -6 -7 -6 3 -1 26 36 65 76 82 21 8 73 22 116 32 212 47 242 195 40 195 -37
0 -98 -7 -134 -14 -60 -13 -125 -19 -171 -17 -25 1 -23 42 3 75 39 49 86 64
291 91 106 14 276 43 378 65 206 43 218 44 254 30z m2192 -25 c21 -31 14 -50
-24 -63 -28 -10 -31 -8 -42 18 -24 58 32 97 66 45z m-239 -7 c29 -27 29 -60 0
-93 -26 -31 -51 -26 -71 14 -14 26 -8 60 16 88 15 18 28 16 55 -9z m1186 -335
c-7 -2 -19 -2 -25 0 -7 3 -2 5 12 5 14 0 19 -2 13 -5z m-56 -9 c-3 -3 -12 -4
-19 -1 -8 3 -5 6 6 6 11 1 17 -2 13 -5z m695 -131 c26 -29 30 -60 14 -91 -20
-38 -51 -47 -77 -21 -25 25 -24 64 2 100 23 33 39 36 61 12z m-1458 -44 c40
-19 44 -77 7 -106 -27 -21 -78 -16 -95 9 -22 32 -20 55 9 83 27 28 42 30 79
14z m-2230 -51 c22 -32 20 -37 -13 -32 -16 3 -32 0 -36 -6 -3 -5 -1 -10 5 -10
6 0 9 -4 6 -9 -6 -9 -86 -25 -123 -25 -44 1 -50 4 -62 30 -9 22 -16 25 -40 19
-17 -3 -32 -2 -36 4 -4 7 6 11 27 11 18 0 62 9 98 19 93 28 155 27 174 -1z
m2961 16 c8 -4 23 -20 31 -36 14 -27 13 -32 -3 -65 -25 -50 -45 -61 -79 -43
-15 8 -33 25 -41 36 -12 19 -12 27 1 57 19 48 52 66 91 51z m2323 -1 c-16 -2
-40 -2 -55 0 -16 2 -3 4 27 4 30 0 43 -2 28 -4z m-128 -19 c0 -2 -13 -4 -30
-4 -16 0 -30 4 -30 8 0 5 14 7 30 4 17 -2 30 -6 30 -8z m37 10 c-3 -3 -12 -4
-19 -1 -8 3 -5 6 6 6 11 1 17 -2 13 -5z m-5657 -24 c0 -5 -13 -17 -29 -26 -17
-10 -27 -22 -24 -28 3 -6 3 -8 -2 -4 -10 10 -37 -11 -29 -23 3 -5 0 -9 -5 -9
-21 0 -11 21 30 65 37 40 59 50 59 25z m5377 -26 c-3 -3 -12 -4 -19 -1 -8 3
-5 6 6 6 11 1 17 -2 13 -5z m-3930 -40 c-3 -3 -12 -4 -19 -1 -8 3 -5 6 6 6 11
1 17 -2 13 -5z m-140 -20 c-3 -3 -12 -4 -19 -1 -8 3 -5 6 6 6 11 1 17 -2 13
-5z m1364 -45 c8 -13 2 -44 -14 -76 -11 -25 -48 -31 -65 -10 -40 48 -13 114
42 103 17 -4 33 -11 37 -17z m-1638 4 c-7 -2 -19 -2 -25 0 -7 3 -2 5 12 5 14
0 19 -2 13 -5z m-80 -10 c-7 -2 -19 -2 -25 0 -7 3 -2 5 12 5 14 0 19 -2 13 -5z
m-86 -9 c-3 -3 -12 -4 -19 -1 -8 3 -5 6 6 6 11 1 17 -2 13 -5z m5473 -43 c0
-9 -9 -29 -21 -46 -37 -55 -81 -148 -115 -245 -19 -52 -43 -115 -54 -140 -11
-25 -52 -124 -91 -220 -162 -397 -226 -549 -334 -795 -31 -71 -82 -193 -112
-270 -68 -176 -65 -168 -102 -246 -36 -73 -130 -184 -195 -228 -23 -16 -75
-39 -115 -51 -62 -19 -89 -22 -179 -18 -89 4 -121 11 -192 38 -47 18 -100 38
-119 45 -18 7 -38 19 -42 28 -13 22 32 157 76 232 19 33 43 76 52 95 24 48 23
47 35 27 5 -11 38 -32 71 -48 116 -54 249 -33 302 48 34 51 85 145 85 155 0 6
-15 36 -32 67 -67 114 -193 358 -409 790 -122 244 -236 460 -253 480 -31 35
-66 86 -66 95 0 2 26 7 58 11 96 11 355 45 384 51 21 4 28 1 34 -18 11 -35
103 -235 234 -508 64 -135 137 -291 161 -347 24 -57 46 -103 49 -103 6 0 25
45 100 230 74 184 91 226 120 290 15 36 34 83 40 105 7 22 20 54 28 70 9 17
32 77 53 135 20 58 50 141 66 185 l29 80 203 22 c112 12 208 24 215 26 18 7
36 -4 36 -22z m-2239 -260 c239 -61 369 -199 421 -449 20 -94 20 -109 9 -492
-7 -217 -9 -434 -5 -483 l7 -87 40 -23 c63 -34 60 -48 -10 -41 -32 3 -83 1
-113 -4 -101 -20 -285 -60 -302 -67 -16 -6 -18 0 -18 48 0 30 -3 75 -6 101
l-7 47 -66 -64 c-87 -83 -158 -129 -257 -166 -142 -52 -264 -59 -379 -24 -141
44 -222 112 -282 240 -32 66 -37 87 -41 171 -5 112 11 191 58 289 61 124 212
226 410 277 125 33 408 76 495 76 l68 0 -6 65 c-12 126 -68 195 -182 226 -83
23 -349 -22 -457 -77 -28 -14 -78 -51 -109 -81 l-57 -55 -20 45 c-21 46 -99
167 -108 167 -3 0 -2 -5 2 -12 18 -28 -15 5 -44 45 l-32 45 27 26 c15 15 55
43 89 62 34 19 67 41 74 49 6 8 28 19 48 26 20 6 64 24 97 39 193 88 488 124
656 81z m-1531 -160 c163 -51 304 -193 344 -346 42 -163 30 -274 -46 -435 -34
-72 -55 -99 -134 -177 l-93 -92 96 -128 c53 -70 126 -173 161 -228 36 -55 84
-125 107 -155 56 -74 62 -85 43 -77 -38 14 -369 -31 -393 -54 -17 -17 -42 -9
-54 19 -20 43 -82 130 -177 248 -48 60 -105 137 -128 172 -38 59 -43 63 -71
58 -16 -3 -93 -15 -169 -26 -77 -11 -141 -22 -142 -23 -1 -1 -3 -131 -5 -289
-2 -159 -4 -288 -5 -288 -32 -1 -338 -52 -357 -59 -16 -6 -30 -11 -33 -11 -2
0 -4 406 -4 903 l0 903 133 18 c72 10 227 33 342 51 116 19 224 36 240 39 72
11 281 -3 345 -23z m-1305 -283 l0 -182 -35 -8 c-19 -4 -89 -14 -155 -23 -105
-14 -224 -32 -600 -91 -49 -7 -107 -14 -127 -14 -20 0 -39 -3 -41 -7 -6 -11
10 -334 17 -341 6 -5 736 110 847 134 l25 6 -4 -184 c-2 -101 -6 -185 -8 -187
-4 -5 -225 -42 -428 -71 -77 -12 -161 -26 -187 -31 -26 -6 -96 -16 -156 -22
l-108 -12 1 -35 c0 -19 4 -102 9 -183 8 -143 9 -148 28 -143 12 3 77 12 146
21 69 9 196 30 281 46 162 30 509 73 519 63 3 -3 0 -9 -7 -13 -10 -6 -13 -49
-11 -182 l2 -174 -54 -8 c-30 -4 -148 -21 -264 -37 -115 -16 -255 -37 -310
-46 -55 -8 -170 -26 -255 -39 -85 -13 -224 -35 -309 -50 -85 -14 -160 -24
-168 -21 -12 5 -13 144 -11 916 l2 910 31 0 c16 0 221 29 455 65 365 56 810
120 860 124 14 1 16 -23 15 -181z m5514 -568 c34 -17 78 -47 97 -68 38 -42 46
-67 11 -34 -22 21 -24 21 -39 5 -17 -19 -16 -49 1 -66 6 -6 11 -16 11 -21 0
-6 -13 6 -30 26 -91 110 -258 118 -359 18 -29 -30 -32 -31 -48 -14 -16 16 -16
16 4 10 13 -4 23 -2 26 7 4 10 -2 13 -21 10 -15 -2 -34 -5 -42 -5 -20 -2 -38
-21 -55 -60 -8 -18 -14 -27 -15 -20 0 21 40 94 76 139 21 25 59 54 96 72 53
27 72 31 142 31 69 0 90 -4 145 -30z m-358 -203 c-10 -9 -11 -8 -5 6 3 10 9
15 12 12 3 -3 0 -11 -7 -18z m-310 -457 c26 -15 24 -46 -6 -75 -28 -29 -38
-31 -59 -9 -31 30 -10 94 30 94 9 0 24 -5 35 -10z m-282 -207 c5 -21 12 -56
16 -78 16 -103 19 -106 120 -121 60 -8 85 -20 85 -39 0 -21 -27 -32 -103 -40
-84 -8 -99 -23 -116 -110 -12 -61 -33 -96 -45 -77 -3 5 -9 36 -15 70 -8 50
-24 100 -34 103 -1 0 -38 6 -82 12 -71 11 -80 15 -83 34 -4 27 16 37 95 48 28
3 59 12 67 18 10 7 23 45 32 92 8 44 17 90 20 103 7 35 32 26 43 -15z m-1997
-18 c27 -11 27 -28 2 -60 -22 -28 -25 -29 -57 -17 -46 16 -67 15 -103 -7 -69
-42 -81 -137 -23 -185 54 -46 149 -27 149 30 0 26 -18 31 -50 14 -15 -8 -19
-5 -25 26 -3 20 -3 39 0 43 4 3 40 8 81 11 l74 5 0 -88 c0 -75 -3 -89 -17 -94
-10 -3 -42 -17 -70 -30 -44 -21 -61 -24 -100 -18 -182 27 -224 200 -80 332 30
28 58 44 84 48 21 4 43 8 48 9 11 3 60 -8 87 -19z m2464 -43 c16 -22 5 -58
-21 -72 -33 -17 -58 -9 -70 24 -8 25 -6 31 18 52 28 24 52 23 73 -4z m-1966
-22 c27 -27 25 -55 -6 -79 -33 -26 -109 -29 -118 -5 -15 39 -6 63 32 83 47 26
67 26 92 1z m-1114 -24 c28 -13 61 -38 74 -56 25 -35 36 -100 26 -153 -14 -74
-132 -167 -214 -167 -93 0 -182 97 -182 199 0 64 76 161 146 186 56 20 92 18
150 -9z m-626 -217 l0 -152 69 7 c38 3 76 9 85 12 13 5 16 -2 16 -39 l0 -45
-52 -6 c-29 -3 -86 -8 -126 -12 l-72 -7 2 189 3 189 30 6 c17 4 33 7 38 8 4 0
7 -67 7 -150z m-340 52 c31 -22 38 -77 16 -119 -14 -28 -14 -30 14 -57 35 -34
37 -52 10 -104 -25 -51 -69 -70 -194 -86 -55 -8 -101 -13 -102 -12 -2 1 -4 86
-6 188 l-3 187 90 15 c101 18 139 15 175 -12z m2625 -195 c72 -16 92 -23 160
-59 57 -29 135 -97 134 -116 -1 -13 -2 -13 -6 2 -3 11 -14 17 -31 17 -18 0
-40 15 -74 50 -41 43 -51 49 -67 40 -26 -13 -31 -13 -25 4 3 8 -4 16 -18 19
-13 4 -25 2 -27 -4 -2 -7 -6 -8 -10 -1 -9 14 -71 26 -71 13 0 -19 -63 -38
-110 -33 -31 3 -50 11 -63 28 -16 20 -27 24 -77 24 -64 0 -70 -6 -70 -65 0
-51 -29 -80 -80 -79 -23 1 -46 7 -50 14 -10 16 -50 3 -50 -17 0 -8 6 -13 13
-10 6 2 11 10 10 16 -2 6 2 11 7 11 13 0 13 -13 0 -26 -5 -5 -6 -15 -1 -22 15
-25 151 -44 151 -22 0 6 5 10 11 10 5 0 7 -4 4 -10 -4 -6 34 -10 107 -10 181
0 219 -14 58 -21 -74 -3 -180 -11 -235 -18 -55 -6 -131 -16 -170 -21 -38 -5
-101 -16 -140 -24 -101 -22 -239 -44 -320 -50 l-70 -5 80 15 c44 8 95 15 113
15 l32 1 0 57 c0 65 -9 84 -34 75 -14 -5 -15 -9 -4 -15 8 -6 -13 -9 -55 -8
-73 2 -115 20 -87 39 17 11 15 11 -57 15 -29 1 -53 -2 -53 -7 0 -4 12 -8 28
-8 l27 0 -30 -16 c-30 -17 -116 -27 -146 -18 -9 2 -19 13 -22 23 -3 14 -14 18
-44 18 -21 0 -45 3 -53 8 -8 5 -11 4 -7 -2 9 -14 -7 -19 -68 -22 -27 -1 -54
-8 -60 -14 -9 -11 -48 -16 -140 -18 -32 -1 -36 -3 -20 -10 14 -7 9 -8 -18 -4
-21 4 -46 8 -55 11 -9 2 -4 -2 12 -9 27 -13 21 -14 -72 -13 -56 0 -98 3 -94 7
4 3 57 14 117 23 61 10 191 30 290 46 99 16 243 39 320 50 77 12 214 34 305
50 166 30 520 85 595 94 69 7 237 -3 310 -18z m-3141 -42 c40 -39 -4 -104 -70
-104 -39 0 -69 35 -58 66 17 48 95 72 128 38z m-661 -35 c20 -5 44 -21 53 -35
20 -30 11 -43 -13 -18 -17 17 -18 17 -22 -1 -2 -12 -5 -14 -10 -6 -6 9 -15 9
-36 1 -16 -6 -35 -8 -43 -5 -20 7 -83 -16 -79 -30 2 -5 -17 -15 -42 -22 l-46
-12 55 4 c30 3 48 2 40 -1 -8 -4 -28 -12 -45 -19 -16 -7 -70 -18 -119 -24 -49
-6 -99 -17 -111 -25 -13 -8 -31 -35 -40 -60 -17 -43 -17 -45 6 -75 30 -41 54
-46 153 -32 44 6 89 11 99 11 36 0 7 -17 -50 -29 -58 -13 -100 -30 -75 -31 18
0 15 -30 -4 -30 -8 0 -13 -4 -10 -9 9 -15 -19 -31 -50 -29 -16 2 -36 11 -44
21 -14 17 -37 32 -90 59 -14 7 -31 20 -38 28 -10 13 -11 12 -5 -4 4 -14 3 -17
-6 -12 -6 4 -19 2 -28 -6 -15 -12 -15 -11 -3 12 12 24 11 24 -18 -4 -17 -16
-29 -34 -25 -39 3 -6 1 -7 -5 -3 -6 4 -12 -5 -15 -21 l-4 -28 -2 27 c-1 19 13
43 49 84 57 65 62 93 23 124 -23 18 -35 20 -87 15 -78 -8 -164 -24 -196 -36
-14 -5 -56 -11 -93 -13 -63 -3 -69 -2 -84 20 -34 52 32 126 127 144 30 5 129
19 220 30 91 11 197 25 235 31 89 14 394 56 420 58 11 0 37 -4 58 -10z m3942
1 c3 -5 1 -10 -4 -10 -6 0 -11 5 -11 10 0 6 2 10 4 10 3 0 8 -4 11 -10z m1315
-85 c11 -13 10 -14 -4 -9 -9 3 -24 0 -33 -7 -15 -12 -16 -12 -10 3 5 14 2 15
-21 8 -24 -8 -93 -16 -213 -25 -20 -2 -46 -6 -58 -10 -12 -3 -21 -2 -21 4 0
14 22 19 160 32 69 6 127 13 129 15 11 10 60 2 71 -11z m-370 -35 c0 -5 -17
-9 -37 -9 -38 1 -38 1 -8 9 43 11 45 11 45 0z m-87 -7 c-7 -2 -19 -2 -25 0 -7
3 -2 5 12 5 14 0 19 -2 13 -5z m-593 -120 c23 -46 40 -88 38 -94 -2 -5 -17 4
-35 20 -18 16 -34 27 -37 24 -2 -3 -37 11 -78 29 -75 36 -183 74 -228 81 -14
2 3 4 38 3 34 0 62 -3 62 -6 0 -3 23 -6 51 -7 29 -1 57 -7 62 -12 6 -6 23 -11
38 -11 34 0 42 32 20 70 l-15 25 21 -19 c12 -10 40 -56 63 -103z m518 110
c-16 -2 -40 -2 -55 0 -16 2 -3 4 27 4 30 0 43 -2 28 -4z m-2518 -23 c0 -5 -4
-10 -9 -10 -6 0 -13 5 -16 10 -3 6 1 10 9 10 9 0 16 -4 16 -10z m1935 -18 c-3
-3 -11 0 -18 7 -9 10 -8 11 6 5 10 -3 15 -9 12 -12z m-2302 1 c-7 -2 -19 -2
-25 0 -7 3 -2 5 12 5 14 0 19 -2 13 -5z m304 1 c-3 -3 -12 -4 -19 -1 -8 3 -5
6 6 6 11 1 17 -2 13 -5z m-501 -40 c-37 -9 -63 -11 -69 -5 -5 5 5 9 28 9 20 0
39 3 42 6 4 3 18 6 32 5 15 -1 2 -7 -33 -15z m-101 -14 c8 -13 -5 -13 -25 0
-13 8 -13 10 2 10 9 0 20 -4 23 -10z m-67 -7 c-10 -2 -26 -2 -35 0 -10 3 -2 5
17 5 19 0 27 -2 18 -5z m750 -11 c13 -11 22 -33 24 -58 3 -35 6 -39 33 -44 22
-4 -2 -12 -91 -29 -113 -22 -152 -22 -139 -1 3 5 31 7 63 5 50 -3 48 -3 -16 7
-40 5 -72 11 -70 13 2 1 26 5 53 8 37 4 44 4 25 -3 -21 -8 -18 -9 17 -6 24 2
44 -1 45 -6 3 -8 16 -8 43 -1 l40 11 -35 1 c-69 2 -80 10 -80 52 0 35 -3 39
-26 39 -14 0 -23 4 -20 9 3 5 19 7 36 6 17 -1 33 1 36 6 9 15 40 10 62 -9z
m-835 1 c-7 -2 -19 -2 -25 0 -7 3 -2 5 12 5 14 0 19 -2 13 -5z m1185 -70 c-15
-2 -42 -2 -60 0 -18 2 -6 4 27 4 33 0 48 -2 33 -4z m-2798 -73 c-8 -5 -22 -9
-30 -9 -10 0 -8 3 5 9 27 12 43 12 25 0z m-57 -17 c-7 -2 -19 -2 -25 0 -7 3
-2 5 12 5 14 0 19 -2 13 -5z m2314 1 c-3 -3 -12 -4 -19 -1 -8 3 -5 6 6 6 11 1
17 -2 13 -5z m-422 -74 c3 -6 -1 -7 -9 -4 -18 7 -21 14 -7 14 6 0 13 -4 16
-10z m-2000 -36 c14 -9 32 -14 40 -10 10 3 15 -1 15 -12 0 -10 3 -13 8 -6 17
25 40 11 45 -28 9 -66 27 -77 110 -71 61 5 76 2 95 -14 19 -14 22 -24 17 -46
-4 -15 -11 -24 -16 -21 -5 3 -19 -2 -31 -10 -12 -9 -38 -16 -58 -17 -32 -1
-33 -2 -10 -9 23 -7 22 -8 -11 -9 -41 -1 -96 15 -121 36 -11 10 -18 11 -23 4
-3 -6 -17 -11 -31 -11 -13 0 -24 -6 -25 -12 0 -10 -2 -10 -6 0 -8 21 -21 13
-28 -17 -5 -22 -14 -31 -43 -39 -44 -14 -201 -42 -228 -42 -16 1 -16 2 5 14
24 13 24 13 -8 12 -20 -1 -30 -5 -27 -13 6 -14 -29 -27 -45 -17 -8 5 -9 3 -4
-6 6 -10 3 -12 -13 -8 -12 4 -20 2 -17 -2 6 -10 -138 -25 -160 -16 -22 8 -39
50 -31 78 15 57 38 69 158 84 62 7 153 18 202 24 126 15 175 31 213 66 41 39
46 94 11 118 -30 21 -14 21 17 0z m1644 -18 c24 -26 23 -64 -1 -93 -13 -16
-60 -17 -76 -1 -17 17 -15 78 5 100 22 25 45 23 72 -6z m3845 -307 c19 -15 26
-30 26 -53 0 -53 -24 -66 -143 -77 -171 -15 -258 -34 -284 -64 -25 -28 -31
-82 -13 -115 15 -28 75 -43 144 -37 l61 6 -39 -14 c-21 -7 -51 -25 -66 -40
-30 -28 -57 -28 -91 1 -8 7 -24 15 -35 17 -10 2 -29 8 -41 15 -12 7 -31 12
-42 12 -10 0 -21 3 -24 8 -2 4 -3 2 -2 -3 2 -6 -3 -16 -10 -22 -10 -10 -14 -9
-19 3 -3 9 -3 21 0 27 3 7 0 5 -8 -4 -7 -9 -20 -18 -28 -22 -11 -4 -10 -6 5
-7 14 0 8 -6 -20 -20 -22 -11 -45 -19 -52 -20 -6 0 -19 -10 -27 -22 -12 -16
-16 -18 -16 -7 0 19 21 40 85 82 61 41 78 85 47 126 -31 41 -60 40 -284 -15
-126 -31 -153 -31 -183 2 -32 35 -32 65 1 98 35 34 49 37 404 86 168 23 355
50 415 60 155 25 206 25 239 -1z m-2267 -125 c-3 -3 -12 -4 -19 -1 -8 3 -5 6
6 6 11 1 17 -2 13 -5z m159 -92 c-4 -3 -11 0 -16 8 -15 24 -11 33 6 15 9 -9
13 -19 10 -23z m34 34 c0 -3 -4 -8 -10 -11 -5 -3 -10 -1 -10 4 0 6 5 11 10 11
6 0 10 -2 10 -4z m-160 -50 c0 -8 -12 -17 -27 -20 -75 -15 -109 -20 -117 -18
-4 2 -13 -2 -20 -7 -13 -11 -186 -35 -194 -26 -3 3 1 5 9 5 8 0 23 13 34 30
16 24 29 30 71 36 28 3 60 4 70 1 11 -3 4 -5 -15 -6 -53 -2 -29 -13 38 -17 38
-3 61 -1 61 6 0 5 16 10 35 10 19 0 35 5 35 10 0 6 5 10 10 10 6 0 10 -6 10
-14z m-380 -76 c11 -7 6 -10 -20 -10 -26 0 -31 3 -20 10 8 5 17 10 20 10 3 0
12 -5 20 -10z m2566 -12 c4 -6 3 -8 -3 -5 -5 3 -25 2 -44 -2 -41 -9 -69 -3
-48 10 20 13 87 11 95 -3z m-119 -14 c-3 -3 -12 -4 -19 -1 -8 3 -5 6 6 6 11 1
17 -2 13 -5z m-2634 -21 c-7 -2 -19 -2 -25 0 -7 3 -2 5 12 5 14 0 19 -2 13 -5z
m-78 -13 c-28 -12 -37 -12 -30 0 3 6 16 10 28 9 21 0 21 -1 2 -9z m-2753 -68
c28 -19 68 -65 68 -79 0 -13 -151 3 -192 21 -36 15 -38 15 -59 -7 l-21 -22 15
30 c16 32 43 59 67 68 32 12 96 6 122 -11z m2386 1 c-10 -2 -26 -2 -35 0 -10
3 -2 5 17 5 19 0 27 -2 18 -5z m2924 -37 c5 -8 8 -7 8 1 0 16 42 7 56 -12 16
-22 7 -50 -22 -65 -13 -8 -24 -20 -25 -29 0 -13 -2 -12 -8 2 -6 17 -8 16 -19
-7 -8 -18 -16 -24 -28 -19 -11 4 -15 2 -11 -4 4 -6 -5 -13 -21 -16 -36 -7 -41
0 -14 19 31 21 55 72 48 100 -4 13 -11 24 -17 24 -6 0 -8 4 -5 8 7 12 50 10
58 -2z m-804 -12 c14 -9 22 -25 21 -42 l0 -27 -16 33 c-16 31 -45 43 -58 22
-3 -5 -12 -10 -18 -10 -12 1 30 40 42 40 4 0 17 -7 29 -16z m-3992 -72 c39
-25 36 -90 -5 -111 -31 -17 -40 -14 -61 22 -25 40 -25 39 1 71 20 26 44 33 65
18z m2417 -9 c-7 -2 -19 -2 -25 0 -7 3 -2 5 12 5 14 0 19 -2 13 -5z m-76 -9
c-3 -3 -12 -4 -19 -1 -8 3 -5 6 6 6 11 1 17 -2 13 -5z m-210 -220 c-3 -3 -12
-4 -19 -1 -8 3 -5 6 6 6 11 1 17 -2 13 -5z m-189 -11 c-16 -2 -40 -2 -55 0
-16 2 -3 4 27 4 30 0 43 -2 28 -4z"/>
<path d="M5660 7896 c0 -8 4 -17 9 -20 5 -4 7 3 4 14 -6 23 -13 26 -13 6z"/>
<path d="M5848 7773 c7 -3 16 -2 19 1 4 3 -2 6 -13 5 -11 0 -14 -3 -6 -6z"/>
<path d="M7813 6745 c-7 -8 -9 -16 -4 -19 5 -3 12 1 15 10 8 22 4 25 -11 9z"/>
<path d="M7870 6740 c0 -5 5 -10 11 -10 5 0 7 5 4 10 -3 6 -8 10 -11 10 -2 0
-4 -4 -4 -10z"/>
<path d="M7180 6608 c0 -7 4 -19 9 -27 7 -10 9 -7 8 12 -2 26 -17 39 -17 15z"/>
<path d="M7161 6595 c1 -19 18 -51 18 -35 0 8 -4 22 -9 30 -5 8 -9 11 -9 5z"/>
<path d="M7195 6540 c3 -5 14 -10 23 -10 15 0 15 2 2 10 -20 13 -33 13 -25 0z"/>
<path d="M2447 6573 c-3 -5 8 -8 23 -8 15 0 26 3 23 8 -2 4 -13 7 -23 7 -10 0
-21 -3 -23 -7z"/>
<path d="M6095 5183 c-86 -12 -330 -65 -377 -83 -66 -25 -123 -70 -148 -121
-21 -40 -27 -99 -10 -99 6 0 10 -9 10 -21 0 -32 37 -77 83 -100 34 -18 54 -21
117 -17 136 8 257 81 340 204 l50 76 0 84 c0 92 5 86 -65 77z"/>
<path d="M5833 4485 c0 -8 4 -12 9 -9 4 3 8 9 8 15 0 5 -4 9 -8 9 -5 0 -9 -7
-9 -15z"/>
<path d="M4125 5600 c-49 -10 -109 -19 -132 -19 l-42 -1 -3 -182 c-2 -101 -2
-216 0 -255 4 -86 -7 -82 167 -58 249 35 290 49 368 127 76 76 91 138 62 248
-11 42 -24 64 -55 92 -78 70 -188 84 -365 48z"/>
<path d="M2215 3920 c-19 -8 -19 -9 3 -9 12 -1 22 4 22 9 0 6 -1 10 -2 9 -2 0
-12 -4 -23 -9z"/>
<path d="M2025 3900 c-4 -6 3 -10 14 -10 25 0 27 6 6 13 -8 4 -17 2 -20 -3z"/>
<path d="M2148 3903 c6 -2 18 -2 25 0 6 3 1 5 -13 5 -14 0 -19 -2 -12 -5z"/>
<path d="M8865 5030 c6 -10 4 -12 -8 -7 -21 8 -22 3 -3 -12 10 -9 15 -8 19 3
4 9 1 18 -5 22 -7 5 -8 2 -3 -6z"/>
<path d="M8431 4994 c0 -11 3 -14 6 -6 3 7 2 16 -1 19 -3 4 -6 -2 -5 -13z"/>
<path d="M5092 4050 c-42 -41 -57 -90 -42 -135 22 -66 87 -93 148 -61 104 54
114 165 19 210 -53 25 -91 21 -125 -14z"/>
<path d="M4140 3907 c-34 -17 -36 -70 -3 -75 34 -5 100 17 107 35 14 36 -58
64 -104 40z"/>
<path d="M4152 3763 c-22 -4 -42 -37 -42 -70 0 -13 10 -15 60 -10 70 6 92 20
88 56 -3 23 -8 26 -43 27 -22 1 -50 0 -63 -3z"/>
<path d="M6348 3723 c7 -3 16 -2 19 1 4 3 -2 6 -13 5 -11 0 -14 -3 -6 -6z"/>
<path d="M6303 3703 c9 -2 15 -9 12 -14 -3 -5 1 -6 10 -2 13 5 14 7 3 14 -7 5
-20 8 -28 8 -11 -1 -10 -3 3 -6z"/>
<path d="M5898 3653 c7 -3 16 -2 19 1 4 3 -2 6 -13 5 -11 0 -14 -3 -6 -6z"/>
<path d="M7130 3646 c0 -2 7 -7 16 -10 8 -3 12 -2 9 4 -6 10 -25 14 -25 6z"/>
<path d="M5805 3623 l-30 -14 30 6 c31 7 41 12 34 19 -2 2 -17 -3 -34 -11z"/>
<path d="M5888 3623 c6 -2 18 -2 25 0 6 3 1 5 -13 5 -14 0 -19 -2 -12 -5z"/>
<path d="M5708 3613 c7 -3 16 -2 19 1 4 3 -2 6 -13 5 -11 0 -14 -3 -6 -6z"/>
<path d="M5883 3603 c9 -2 23 -2 30 0 6 3 -1 5 -18 5 -16 0 -22 -2 -12 -5z"/>
<path d="M5338 3573 c7 -3 16 -2 19 1 4 3 -2 6 -13 5 -11 0 -14 -3 -6 -6z"/>
<path d="M6180 3506 c0 -19 -26 -28 -66 -20 -30 5 -34 4 -34 -15 0 -11 5 -21
10 -21 6 0 10 4 10 9 0 5 22 11 50 15 55 7 65 15 44 34 -11 10 -14 10 -14 -2z"/>
<path d="M6138 3503 c7 -3 16 -2 19 1 4 3 -2 6 -13 5 -11 0 -14 -3 -6 -6z"/>
<path d="M2550 2990 c11 -7 5 -10 -24 -10 -52 0 -43 -6 19 -13 32 -4 43 -3 30
3 -14 6 -15 9 -5 9 13 1 13 2 0 11 -8 5 -19 10 -25 10 -5 0 -3 -5 5 -10z"/>
<path d="M2598 2993 c7 -3 16 -2 19 1 4 3 -2 6 -13 5 -11 0 -14 -3 -6 -6z"/>
<path d="M2670 2996 c0 -2 7 -6 15 -10 8 -3 15 -1 15 4 0 6 -7 10 -15 10 -8 0
-15 -2 -15 -4z"/>
<path d="M5760 2589 c0 -5 5 -7 10 -4 6 3 10 8 10 11 0 2 -4 4 -10 4 -5 0 -10
-5 -10 -11z"/>
</g>
</svg>
